<?xml version="1.0" standalone="no"?>
<!DOCTYPE svg PUBLIC "-//W3C//DTD SVG 20010904//EN"
 "http://www.w3.org/TR/2001/REC-SVG-20010904/DTD/svg10.dtd">
<svg version="1.0" xmlns="http://www.w3.org/2000/svg"
 width="5000.000000pt" height="5000.000000pt" viewBox="0 0 5000.000000 5000.000000"
 preserveAspectRatio="xMidYMid meet">

<g transform="translate(0.000000,5000.000000) scale(0.100000,-0.100000)"
fill="#000000" stroke="none">
<path d="M37745 44273 c-11 -1 -153 -4 -315 -7 -162 -3 -308 -7 -325 -9 -16
-3 -57 -7 -90 -11 -33 -3 -91 -10 -130 -16 -38 -5 -88 -11 -110 -14 -200 -26
-607 -129 -730 -186 -11 -5 -63 -26 -115 -46 -123 -49 -365 -170 -494 -246
-480 -286 -909 -670 -1266 -1132 -59 -77 -87 -105 -99 -102 -9 3 -34 8 -56 11
-22 4 -47 8 -55 10 -8 3 -37 7 -65 10 -27 3 -61 8 -75 10 -14 3 -45 7 -70 10
-25 3 -67 10 -95 15 -27 5 -72 12 -100 15 -27 3 -68 9 -90 12 -51 8 -58 9
-130 17 -33 4 -71 9 -85 11 -14 3 -47 7 -75 10 -27 3 -68 9 -90 12 -53 8 -60
9 -128 17 -32 4 -66 9 -76 11 -9 2 -58 6 -107 10 -49 3 -96 8 -104 10 -8 2
-42 7 -75 10 -33 3 -76 8 -95 10 -19 2 -62 7 -95 10 -33 4 -76 8 -95 10 -40 5
-166 16 -225 20 -47 4 -177 14 -253 20 -237 19 -844 26 -992 12 -433 -42 -760
-131 -1125 -307 -313 -151 -579 -336 -919 -639 -144 -129 -721 -714 -708 -719
5 -1 128 27 273 63 279 70 495 117 619 134 41 6 84 12 95 15 11 2 47 7 80 11
33 4 71 9 85 11 164 24 681 23 720 -1 3 -2 23 -6 45 -9 22 -4 94 -22 160 -41
66 -20 127 -37 135 -39 72 -20 417 -139 467 -162 17 -8 34 -14 38 -14 13 0
195 -70 435 -167 289 -117 333 -135 390 -161 25 -11 101 -43 170 -72 69 -29
148 -63 175 -75 28 -13 79 -35 115 -50 35 -15 92 -40 125 -55 33 -15 126 -58
206 -94 81 -36 189 -85 240 -109 52 -25 119 -56 149 -69 30 -14 78 -36 105
-48 28 -13 102 -47 165 -78 63 -30 147 -69 185 -87 70 -32 432 -207 512 -247
l42 -21 -82 -58 c-242 -170 -340 -242 -637 -464 -394 -295 -596 -464 -820
-686 -228 -225 -429 -369 -715 -509 -145 -71 -328 -140 -445 -169 -55 -13
-212 -37 -300 -47 -36 -3 -76 -8 -90 -10 -42 -5 -281 -34 -340 -40 -60 -7 -62
-4 25 -40 17 -7 55 -20 85 -29 30 -10 69 -23 85 -31 61 -26 517 -180 560 -188
11 -2 65 -13 120 -24 125 -26 182 -34 315 -47 53 -6 404 -6 485 0 80 5 202 19
265 30 234 40 355 66 515 112 50 13 97 26 105 28 8 2 98 32 200 66 206 68 241
79 485 148 418 118 764 187 1090 217 120 11 329 15 320 6 -5 -5 -64 -27 -130
-47 -66 -21 -127 -42 -135 -46 -8 -3 -26 -11 -40 -17 -271 -114 -386 -170
-541 -263 -115 -69 -254 -168 -246 -175 3 -3 25 3 49 14 43 19 150 59 185 68
10 2 68 17 129 33 61 16 131 32 155 36 24 3 60 10 79 15 19 5 64 12 100 15 36
4 81 10 100 15 31 8 84 13 262 25 26 1 46 -1 43 -5 -3 -4 -36 -26 -74 -49
-123 -73 -385 -278 -399 -313 -2 -5 20 0 50 11 153 55 384 104 555 116 48 4
95 8 105 10 40 8 47 -3 33 -48 -7 -23 -25 -82 -40 -132 -119 -399 -322 -840
-453 -984 l-37 -41 -45 21 c-135 63 -541 192 -679 215 -14 3 -34 7 -43 10 -10
3 -30 7 -45 10 -16 3 -53 9 -83 15 -98 19 -154 29 -200 34 -25 3 -99 12 -165
20 -182 21 -201 23 -325 32 -228 15 -995 8 -1190 -12 -25 -3 -70 -7 -100 -9
-30 -3 -77 -7 -105 -11 -27 -3 -68 -7 -90 -10 -22 -2 -114 -13 -205 -24 -91
-11 -187 -23 -215 -26 -27 -3 -57 -8 -65 -10 -8 -2 -33 -7 -55 -9 -143 -18
-669 -119 -940 -181 -38 -9 -80 -18 -93 -21 -12 -2 -73 -18 -135 -34 -62 -16
-157 -40 -212 -55 -112 -28 -225 -61 -391 -112 -62 -18 -120 -35 -130 -37 -11
-2 -59 -17 -109 -34 -49 -16 -142 -46 -205 -66 -63 -20 -124 -41 -135 -46 -11
-5 -65 -25 -120 -44 -55 -18 -118 -40 -140 -48 -130 -48 -244 -92 -272 -104
-17 -8 -34 -14 -38 -14 -4 0 -33 -11 -64 -24 -31 -13 -100 -42 -154 -65 -378
-158 -510 -219 -852 -391 -564 -285 -928 -511 -1455 -902 -981 -728 -1697
-1331 -2260 -1904 -539 -548 -867 -984 -1103 -1465 l-82 -166 -230 -184 c-127
-101 -296 -236 -375 -299 -80 -63 -208 -164 -285 -225 -77 -61 -282 -223 -455
-360 -1595 -1262 -2753 -2212 -3485 -2861 -156 -139 -536 -435 -1030 -804
-706 -527 -1161 -821 -1675 -1079 -102 -51 -187 -95 -189 -97 -4 -4 21 0 129
21 121 23 153 31 245 57 39 11 75 21 80 22 33 6 264 88 400 143 243 98 522
235 744 365 46 27 85 48 86 46 9 -9 -252 -305 -395 -449 -284 -285 -545 -500
-1005 -829 -140 -100 -547 -370 -738 -491 -112 -71 -158 -99 -467 -289 -74
-46 -234 -141 -355 -212 -121 -72 -224 -134 -230 -138 -9 -7 -196 -110 -395
-218 -36 -19 -94 -52 -130 -73 -36 -20 -148 -84 -250 -142 -102 -57 -241 -137
-310 -177 -69 -40 -141 -81 -160 -92 -104 -60 -777 -470 -890 -543 -19 -13
-111 -71 -205 -130 -1114 -705 -2154 -1455 -2755 -1990 -237 -210 -237 -209 0
-51 200 135 421 278 518 337 40 24 91 56 115 71 23 15 60 38 82 51 22 13 101
61 175 107 147 90 564 341 619 372 19 11 129 76 245 145 292 173 330 195 341
201 21 10 -27 -31 -195 -169 -1455 -1187 -3108 -2676 -4335 -3904 -750 -750
-1043 -1090 -1062 -1233 -11 -85 51 -183 144 -229 52 -25 68 -28 160 -28 66 0
99 -3 94 -10 -4 -5 -37 -46 -73 -90 -237 -293 -459 -618 -540 -795 -79 -170
-93 -223 -92 -340 1 -123 78 -219 209 -258 27 -8 329 -9 385 -1 75 11 251 48
325 70 39 10 88 24 110 30 22 6 57 18 79 26 21 7 40 12 42 11 2 -2 -21 -51
-50 -109 -62 -125 -81 -180 -97 -280 -23 -148 9 -281 89 -370 72 -80 168 -126
311 -148 66 -10 258 -14 326 -7 155 17 160 17 145 4 -15 -12 -151 -123 -619
-502 -568 -461 -802 -705 -857 -893 -43 -146 31 -285 175 -330 61 -19 298 -25
401 -10 222 31 253 37 540 108 246 61 362 92 515 139 33 10 87 26 120 35 33
10 121 38 195 62 120 40 175 59 380 135 30 11 97 38 148 59 51 22 97 39 102
39 5 0 37 13 72 29 35 16 91 41 126 55 35 15 95 42 135 60 40 19 104 48 142
66 102 47 424 208 540 270 356 189 800 451 1180 695 222 142 690 453 895 594
303 208 386 264 750 509 212 142 392 262 400 266 8 5 -160 -167 -375 -381
-388 -386 -590 -580 -1430 -1373 -1240 -1170 -1744 -1693 -1870 -1940 -35 -68
-57 -140 -57 -186 0 -90 79 -202 170 -242 38 -16 40 -17 82 -27 33 -8 163 -9
223 -1 199 25 531 142 838 297 43 21 80 39 82 39 3 0 12 -33 22 -73 20 -84 79
-212 129 -279 47 -63 96 -98 175 -125 55 -19 82 -22 166 -19 55 2 111 6 125
10 14 3 48 11 75 17 345 78 965 429 1650 934 83 62 486 370 555 426 l39 32 50
-45 c29 -27 75 -55 111 -68 53 -20 73 -22 173 -18 98 4 123 9 202 40 105 41
235 116 320 185 33 26 134 107 225 178 316 249 488 396 722 617 l147 139 -14
-48 c-8 -27 -17 -66 -20 -88 -4 -22 -10 -53 -14 -70 -8 -33 -7 -206 3 -244 11
-46 47 -108 83 -145 118 -118 301 -122 528 -11 198 96 387 246 670 529 253
253 393 415 734 846 28 34 28 34 68 21 25 -8 70 -12 119 -10 65 4 92 10 154
40 192 92 316 243 815 994 280 423 301 454 754 1160 148 231 298 465 334 520
35 55 129 201 207 325 79 124 167 261 195 305 29 44 109 170 180 280 70 110
156 243 189 295 34 52 82 125 105 163 24 37 45 67 48 67 5 0 -21 -51 -177
-340 -75 -140 -163 -304 -195 -365 -56 -105 -331 -620 -393 -735 -16 -30 -52
-98 -79 -150 -84 -159 -132 -249 -203 -380 -37 -69 -126 -235 -197 -370 -72
-135 -142 -265 -155 -290 -14 -25 -49 -90 -78 -145 -29 -55 -67 -127 -85 -160
-18 -33 -54 -100 -80 -150 -26 -49 -62 -117 -80 -150 -125 -230 -121 -236 14
-20 48 77 175 280 283 450 107 171 300 477 428 680 128 204 256 406 285 450
28 44 64 101 81 127 71 115 202 325 239 382 22 34 86 137 143 227 57 90 140
223 185 294 46 72 114 180 152 240 37 61 110 175 160 255 51 80 150 237 220
350 71 113 135 213 143 222 16 19 60 25 252 33 74 2 145 7 158 9 20 4 22 2 16
-17 -27 -91 -195 -427 -307 -618 -147 -249 -381 -611 -507 -784 -20 -27 -40
-57 -44 -65 -14 -27 426 422 549 560 254 286 407 479 547 696 65 99 153 255
153 271 0 1 25 4 55 7 30 3 64 7 76 10 19 4 59 9 164 21 19 3 46 7 60 9 14 3
45 8 70 12 25 4 54 8 65 10 11 2 103 16 205 33 102 16 221 36 265 45 104 20
361 67 400 72 17 2 48 9 70 14 22 6 112 24 200 40 88 17 169 33 180 35 11 3
106 23 210 45 105 22 206 45 225 50 59 17 301 70 319 70 11 -1 38 -46 83 -138
373 -766 1231 -1742 2393 -2724 l150 -127 28 -103 c30 -109 109 -283 151 -333
l25 -30 -16 65 c-8 36 -17 109 -18 163 -4 112 -12 108 83 32 51 -41 62 -66 87
-195 18 -92 112 -308 160 -365 14 -16 23 -23 20 -15 -5 17 -13 56 -23 120 -8
54 -8 237 0 246 4 3 22 -5 40 -19 31 -24 35 -34 52 -129 11 -57 20 -105 21
-108 7 -38 48 -212 55 -235 5 -16 25 -95 45 -175 38 -152 90 -336 161 -573 8
-28 19 -65 24 -82 4 -16 22 -75 40 -130 75 -237 112 -355 135 -425 27 -86 109
-351 131 -425 18 -59 79 -227 99 -270 7 -16 25 -59 40 -95 15 -36 60 -137 100
-225 117 -257 124 -289 140 -675 6 -142 13 -241 20 -285 2 -16 7 -52 11 -80 3
-27 10 -63 15 -80 4 -16 11 -43 14 -60 7 -45 58 -215 104 -350 l41 -120 -47
-80 c-59 -103 -137 -207 -210 -284 -56 -59 -60 -61 -138 -76 -147 -28 -259
-101 -343 -224 -23 -34 -42 -64 -42 -66 0 -3 -16 -30 -36 -61 -35 -55 -36 -55
-77 -50 -56 8 -246 9 -276 2 -229 -52 -438 -227 -550 -461 -62 -127 -73 -245
-42 -430 12 -67 5 -114 -29 -216 -105 -314 -113 -535 -30 -829 41 -146 273
-841 278 -835 3 3 6 19 8 37 5 52 15 178 19 233 2 28 6 77 9 110 3 33 8 96 11
140 3 44 8 100 10 125 3 25 7 74 10 110 6 65 7 74 20 160 7 43 10 59 19 98 2
9 7 31 11 47 73 315 263 555 540 682 152 69 209 86 386 118 59 11 157 15 319
14 96 0 230 0 297 0 l123 1 5 -27 c31 -152 74 -259 149 -372 49 -72 180 -205
215 -216 18 -5 21 -15 22 -68 2 -93 6 -135 25 -212 37 -152 104 -265 240 -399
l92 -91 7 -160 c12 -295 14 -350 20 -405 2 -30 8 -140 11 -245 4 -104 8 -212
9 -240 2 -27 6 -122 10 -210 9 -207 11 -234 17 -240 2 -3 29 46 58 108 30 61
89 186 133 277 109 227 157 336 205 466 23 61 42 114 42 117 0 3 5 18 12 34 6
15 12 30 13 33 0 3 14 45 29 95 15 49 30 99 32 110 10 47 26 121 28 134 2 8
23 33 49 55 94 84 213 239 270 352 24 48 64 156 73 199 23 105 27 283 10 360
-7 33 -24 98 -32 124 -6 19 -4 22 7 16 7 -5 59 -10 114 -11 116 -2 170 -21
275 -101 142 -106 162 -177 174 -623 6 -188 14 -355 21 -400 2 -14 7 -50 10
-80 14 -110 58 -252 130 -415 12 -27 38 -89 56 -137 19 -49 36 -88 39 -88 10
0 275 766 364 1055 15 50 34 108 42 130 7 22 20 65 28 95 8 30 29 109 46 175
55 203 95 385 106 475 3 25 7 46 8 48 3 2 16 4 152 16 l62 6 11 -48 c7 -26 27
-94 45 -152 19 -58 57 -179 86 -270 29 -91 74 -230 100 -310 26 -80 73 -227
106 -327 32 -101 62 -183 66 -183 4 0 11 15 17 33 5 17 28 84 51 147 75 211
120 354 160 505 40 154 44 171 62 290 13 91 19 427 8 485 -4 25 -11 61 -14 80
-3 19 -10 50 -15 68 -5 18 -10 35 -10 37 1 24 -62 186 -97 250 -54 100 -88
148 -189 266 -205 239 -298 316 -454 375 -82 30 -104 36 -211 52 -74 11 -168
7 -272 -13 -78 -15 -295 -90 -433 -150 -114 -49 -196 -76 -244 -81 -51 -5 -60
-3 -104 26 -26 18 -82 71 -125 118 -223 249 -259 282 -435 410 -185 133 -199
148 -202 207 -2 28 -6 110 -10 183 -3 73 -8 141 -9 150 -2 9 -7 40 -10 67 -13
86 -57 227 -97 308 -59 118 -149 247 -369 527 -254 324 -313 411 -339 497 -20
68 -24 89 -41 213 -25 178 -43 276 -72 390 -46 183 -78 256 -255 585 -45 83
-93 184 -106 225 -33 103 -34 106 -52 238 -5 34 -33 207 -40 242 -2 8 -24 109
-50 223 -118 528 -118 525 -130 692 -8 111 -17 210 -21 216 -2 3 -6 34 -10 70
-3 35 -8 67 -10 70 -1 3 -6 28 -9 55 -4 27 -13 85 -20 129 -15 85 -14 100 6
63 24 -47 186 -255 251 -324 58 -61 188 -165 188 -150 0 3 -13 24 -29 48 -75
111 -165 374 -195 570 -3 21 -10 57 -15 80 -16 72 -28 214 -31 343 -2 139 -4
136 36 69 113 -189 284 -375 405 -443 l40 -23 -34 48 c-19 27 -49 77 -66 111
-35 70 -96 247 -106 308 -4 22 -8 45 -9 50 -10 38 -25 129 -32 195 l-5 55 100
88 c144 125 423 348 661 526 113 85 211 158 217 164 14 10 11 18 78 -168 109
-297 261 -547 459 -753 182 -189 363 -315 583 -408 36 -15 49 -30 110 -132 46
-79 95 -144 152 -204 46 -48 87 -88 91 -88 5 0 -8 37 -29 82 -48 106 -97 289
-73 274 8 -5 133 -28 160 -29 7 0 40 -54 72 -120 80 -161 173 -296 264 -387
42 -41 76 -71 76 -67 0 5 -11 29 -25 54 -34 59 -73 177 -91 271 -23 122 -25
120 71 50 70 -51 104 -86 198 -207 193 -248 341 -454 491 -681 35 -52 128
-194 208 -315 80 -121 186 -278 235 -350 174 -250 296 -458 328 -557 42 -131
134 -276 339 -538 58 -74 115 -153 125 -175 12 -25 21 -72 25 -125 3 -47 8
-96 11 -110 3 -14 7 -38 9 -55 13 -96 52 -218 93 -293 20 -35 23 -53 19 -95
-13 -135 -34 -194 -95 -260 -44 -47 -66 -58 -210 -105 -133 -44 -231 -103
-333 -200 -227 -218 -362 -544 -353 -852 6 -229 78 -443 223 -665 43 -66 46
-77 58 -175 14 -117 16 -130 39 -214 47 -175 143 -349 268 -483 52 -56 418
-342 438 -343 8 0 9 -7 -56 245 -52 199 -62 238 -69 275 -2 14 -9 45 -15 70
-5 25 -12 65 -15 90 -3 25 -9 72 -13 105 -14 103 -10 366 6 403 7 18 41 54 75
80 188 149 426 415 533 598 37 64 43 69 98 78 128 22 341 111 455 190 l64 45
41 -37 c55 -52 140 -113 205 -150 l55 -31 24 -93 c13 -51 37 -127 53 -168 148
-383 254 -535 449 -641 123 -67 142 -82 152 -114 5 -16 10 -127 12 -245 2
-118 7 -231 13 -250 51 -181 167 -372 313 -517 42 -42 78 -84 78 -93 15 -539
14 -601 -14 -930 -2 -19 -6 -73 -9 -120 -4 -47 -9 -103 -11 -125 -2 -22 -7
-80 -10 -130 -4 -49 -9 -94 -12 -99 -3 -5 0 -7 7 -4 7 2 23 22 35 43 12 22 66
117 120 210 54 94 106 186 117 205 11 19 23 40 28 45 4 6 23 39 42 75 19 36
66 121 103 190 58 107 130 253 187 380 42 93 140 360 133 360 -3 0 0 12 6 27
52 138 77 452 50 623 -61 374 -180 587 -423 756 -46 31 -87 60 -91 64 -4 4
-18 37 -31 73 l-23 67 81 -83 c104 -105 207 -174 461 -306 55 -29 105 -58 111
-64 11 -12 33 -75 54 -157 47 -186 178 -391 302 -472 66 -44 109 -59 292 -103
32 -8 106 -47 136 -71 50 -42 102 -150 116 -242 3 -21 8 -40 10 -44 5 -8 18
-171 18 -223 -1 -58 -13 -196 -19 -204 -2 -4 -7 -23 -10 -42 -6 -33 -54 -127
-127 -247 -21 -34 -38 -64 -38 -66 0 -6 -170 -299 -182 -314 -6 -7 -9 -14 -6
-17 2 -2 140 86 307 196 245 162 321 218 397 291 130 126 245 301 304 463 29
81 77 258 85 320 4 28 10 59 12 70 8 34 11 318 4 365 -5 29 -2 59 6 84 50 148
45 321 -14 496 -32 96 -46 127 -92 199 -12 19 -2 15 56 -22 140 -90 327 -176
438 -203 129 -31 167 -36 316 -39 274 -6 379 32 531 196 127 136 168 155 353
164 257 13 481 -146 576 -410 30 -84 31 -223 4 -709 -2 -38 0 -65 4 -60 7 8
71 111 204 329 17 28 50 80 74 117 69 107 124 234 153 353 18 74 20 250 4 341
-72 402 -468 817 -838 879 -58 10 -234 7 -292 -4 -28 -5 -81 -21 -118 -35 -38
-14 -79 -26 -91 -26 -31 0 -88 25 -170 75 -197 119 -419 203 -610 230 -90 12
-352 7 -435 -9 -8 -1 -33 -6 -55 -10 -22 -4 -76 -15 -120 -23 -44 -9 -90 -15
-103 -15 -13 1 -80 30 -150 65 -70 35 -156 74 -192 87 -36 13 -69 27 -75 31
-30 21 -304 90 -460 114 -43 7 -354 7 -365 0 -4 -2 -40 -7 -81 -10 -67 -6 -82
-4 -159 25 -190 71 -315 111 -371 117 -58 6 -60 7 -151 97 -396 389 -627 554
-1120 799 -183 91 -370 188 -415 215 -162 98 -256 190 -389 382 -202 292 -336
422 -483 470 -52 17 -91 55 -159 153 -47 68 -302 483 -302 491 0 3 -50 87
-112 188 -61 100 -120 199 -131 218 -11 19 -26 42 -32 50 -55 69 -375 706
-506 1005 -24 55 -55 125 -70 155 -15 30 -25 56 -24 58 2 2 30 -17 62 -42 114
-86 313 -196 355 -196 6 0 -23 35 -63 78 -150 156 -314 445 -410 722 -33 93
-78 244 -74 248 2 2 32 -22 67 -55 148 -137 349 -268 453 -296 11 -3 31 -8 44
-12 16 -5 -4 20 -61 76 -74 75 -218 275 -218 305 0 5 20 20 45 33 57 30 159
137 350 366 243 292 382 444 413 451 107 26 537 243 896 453 49 29 83 45 76
35 -8 -9 -133 -117 -278 -240 -145 -123 -257 -224 -250 -224 7 0 78 13 158 30
80 16 161 32 180 35 109 17 324 72 376 95 254 115 546 282 884 505 157 104
468 323 563 395 15 12 27 19 27 16 0 -9 -204 -260 -306 -376 -163 -187 -276
-285 -616 -540 -180 -134 -326 -246 -324 -247 2 -2 39 6 82 17 44 12 102 28
129 35 28 7 111 30 185 50 74 20 160 43 190 51 30 8 62 16 70 18 67 18 272 79
300 90 225 90 255 103 424 188 432 216 1003 620 1531 1082 44 38 91 79 104 90
47 41 -262 -347 -498 -624 -63 -74 -254 -294 -424 -488 -170 -195 -307 -355
-305 -357 2 -3 15 2 28 9 86 45 216 115 280 151 74 42 99 55 335 183 66 35
139 75 163 88 23 13 63 36 90 50 340 190 824 509 1252 828 848 629 1845 1559
2710 2526 998 1115 1914 2330 2763 3665 271 426 635 1038 835 1405 19 36 58
106 85 155 147 266 237 439 425 815 160 320 240 486 315 650 93 201 181 399
196 438 11 26 32 76 49 112 16 36 57 135 92 220 34 85 68 169 75 185 7 17 29
73 50 125 20 52 40 104 45 115 5 11 13 34 18 50 6 17 20 55 32 85 12 30 25 66
30 80 4 14 22 63 39 110 17 47 49 137 70 200 22 63 44 129 50 145 34 100 122
376 127 400 1 6 14 51 29 100 15 50 36 124 46 165 11 41 24 86 29 100 5 14 11
36 14 50 2 14 11 52 20 85 32 122 92 392 112 500 4 22 8 45 10 50 2 9 10 56
29 170 3 17 8 46 11 65 4 19 8 44 10 55 4 34 26 189 30 215 19 122 25 563 11
750 -5 57 -10 107 -12 110 -1 3 -6 29 -9 59 -4 29 -8 56 -10 60 -2 3 -6 29 -9
56 -5 40 -33 181 -52 255 -116 448 -302 850 -547 1178 -87 116 -287 319 -380
385 -131 92 -295 167 -398 182 -25 3 -52 7 -61 9 -9 1 -52 44 -96 96 -183 217
-389 414 -530 504 -46 29 -63 46 -63 62 0 25 -29 169 -60 300 -12 49 -30 127
-42 174 -25 108 -111 416 -150 540 -85 274 -226 695 -251 750 -6 14 -13 30
-15 35 -14 31 23 -21 69 -95 198 -322 307 -515 432 -760 102 -202 102 -202 70
-40 -39 202 -159 579 -243 765 -5 11 -30 70 -56 130 -250 586 -794 1580 -1262
2304 -30 46 -83 141 -119 210 -78 149 -131 250 -205 386 -30 55 -79 145 -108
200 -58 108 -412 718 -465 800 -17 28 -76 120 -130 205 -286 450 -478 714
-698 960 -47 52 -84 96 -83 98 7 6 183 -74 356 -161 251 -128 366 -202 669
-432 58 -44 -45 73 -199 225 -256 254 -537 465 -905 678 -39 22 -283 142 -355
174 -37 17 -226 88 -233 88 -2 0 -47 28 -98 63 -104 69 -191 122 -289 175 -36
20 -92 51 -125 69 l-60 34 70 -6 c39 -2 79 -7 90 -9 11 -2 45 -7 75 -10 70 -9
336 -66 462 -100 95 -26 359 -113 588 -194 63 -23 115 -40 116 -39 10 9 -592
307 -761 377 -11 4 -36 15 -55 23 -133 55 -395 133 -563 167 -214 42 -296 50
-524 50 -151 0 -170 2 -270 31 -59 17 -119 33 -133 35 -13 3 -62 14 -109 25
-47 11 -101 22 -120 25 -20 3 -43 7 -51 9 -8 3 -33 7 -55 10 -22 3 -65 10 -95
15 -101 17 -115 19 -175 26 -98 10 -124 12 -255 19 -69 4 -127 8 -130 9 -3 1
-14 1 -25 -1z m-4 -377 c184 -31 391 -108 537 -199 39 -25 58 -52 30 -42 -7 2
-69 18 -138 34 -117 29 -199 46 -330 70 -30 6 -64 12 -75 15 -11 2 -42 7 -70
10 -27 4 -57 9 -65 11 -14 4 -83 12 -175 20 -60 5 -223 15 -282 17 -29 1 -53
2 -53 4 0 5 127 44 190 58 65 15 348 16 431 2z m-596 -235 c127 -29 234 -65
305 -102 l55 -29 -75 5 c-41 3 -93 8 -115 10 -59 6 -166 14 -280 22 -126 8
-486 8 -585 0 -41 -4 -100 -9 -130 -12 l-55 -4 65 30 c124 59 184 77 315 96
22 3 42 7 44 9 2 1 83 2 180 0 139 -2 197 -8 276 -25z m-725 -296 c41 -3 85
-7 97 -9 11 -3 43 -8 70 -11 26 -4 55 -11 63 -16 9 -5 1 -6 -20 -1 -43 8 -337
8 -405 0 -174 -23 -329 -82 -442 -169 -45 -35 -103 -98 -103 -113 0 -2 48 -4
108 -3 111 2 204 -6 260 -22 18 -5 33 -10 35 -9 9 1 88 -26 114 -40 32 -17 30
-17 -115 -18 -174 -1 -274 -9 -457 -40 -83 -13 -325 -75 -370 -94 -11 -4 -51
-21 -90 -36 -71 -29 -113 -49 -175 -87 l-35 -21 22 30 c80 112 314 253 481
289 12 3 32 7 43 10 12 2 23 6 23 7 89 140 227 251 381 303 48 16 57 19 108
30 60 14 77 16 147 22 41 3 77 7 79 9 2 2 27 1 55 -1 28 -3 85 -7 126 -10z
m2548 -481 c110 -28 214 -87 302 -173 68 -66 145 -178 108 -155 -7 4 -36 22
-64 40 -175 112 -462 222 -651 250 -24 4 -43 10 -43 15 0 9 65 29 120 36 19 3
37 7 38 8 8 8 128 -6 190 -21z m1102 -70 c130 -58 240 -122 343 -201 82 -62
245 -221 316 -308 66 -81 152 -207 146 -213 -5 -6 -132 97 -456 368 -129 108
-286 238 -349 289 -63 51 -116 96 -118 101 -3 9 61 -11 118 -36z m-1555 -69
c178 -17 433 -133 539 -244 35 -37 30 -37 -83 -10 -47 11 -111 25 -141 30
-166 29 -233 39 -305 46 -148 15 -491 8 -581 -11 -12 -2 -45 -7 -75 -11 -30
-4 -58 -9 -64 -12 -5 -2 12 16 39 41 92 84 281 160 431 172 39 4 71 7 72 8 4
3 96 -2 168 -9z m-6820 -268 c33 -3 101 -8 152 -11 50 -4 113 -8 140 -10 26
-3 82 -8 123 -11 41 -3 91 -8 110 -10 58 -7 121 -13 205 -21 44 -3 89 -8 99
-10 11 -2 56 -6 100 -10 45 -3 83 -8 86 -9 3 -2 33 -6 65 -10 103 -11 219 -25
240 -29 11 -2 47 -7 80 -11 81 -9 194 -24 225 -29 24 -4 64 -10 165 -21 28 -3
61 -8 75 -11 13 -3 40 -7 60 -10 19 -2 123 -18 230 -34 107 -17 215 -33 240
-36 25 -3 51 -7 58 -10 8 -2 36 -7 64 -10 27 -3 111 -22 186 -40 75 -19 148
-37 162 -40 91 -19 706 -223 735 -244 6 -4 28 -13 50 -20 22 -7 63 -23 90 -35
28 -13 79 -35 115 -50 216 -90 500 -240 682 -361 171 -114 177 -125 28 -56
-124 57 -160 72 -287 122 -70 28 -139 56 -153 62 -49 21 -65 28 -110 43 -25 9
-74 27 -110 40 -311 113 -753 260 -805 266 -5 1 -21 6 -35 11 -29 11 -153 46
-190 54 -14 2 -36 9 -50 14 -27 9 -313 77 -342 81 -2 0 -21 4 -43 9 -22 6 -56
13 -75 16 -19 3 -73 12 -119 20 -46 8 -93 14 -105 14 -17 0 203 -78 609 -214
131 -45 330 -116 362 -131 17 -8 35 -15 40 -15 8 0 225 -80 268 -99 11 -5 52
-21 90 -36 39 -15 84 -33 100 -40 17 -7 61 -25 100 -40 38 -15 112 -47 165
-72 52 -24 111 -52 130 -61 56 -25 193 -103 220 -125 l25 -19 -25 6 c-14 4
-34 11 -45 16 -24 11 -373 126 -500 164 -49 15 -108 34 -130 42 -22 8 -96 30
-165 50 -69 19 -140 40 -157 45 -81 23 -108 30 -268 73 -229 63 -547 144 -585
151 -17 3 -56 12 -88 21 -31 8 -79 20 -107 25 -27 6 -66 15 -85 19 -50 11
-110 25 -225 50 -55 12 -107 23 -115 25 -137 30 -291 61 -377 75 -34 6 -68 12
-75 15 -7 3 -26 7 -43 9 -55 7 -168 27 -174 30 -3 2 -26 7 -51 10 -25 3 -56 8
-70 11 -14 2 -70 11 -125 20 -134 21 -156 25 -185 30 -14 2 -47 7 -75 10 -27
3 -63 8 -80 10 -87 13 -274 37 -304 40 -19 2 -55 6 -80 10 -25 3 -66 7 -91 10
-137 12 -199 18 -230 20 -407 27 -787 27 -990 -1 -49 -7 -223 -44 -310 -67
-152 -40 -456 -153 -640 -239 -166 -77 -446 -221 -464 -239 -6 -5 -15 -9 -20
-9 -12 0 -4 7 163 143 175 142 408 294 589 384 86 43 171 83 187 90 45 18 168
63 185 68 8 2 53 16 100 30 47 14 130 35 184 46 55 11 102 22 106 24 3 2 37 6
75 10 39 4 72 9 75 10 3 2 44 7 90 10 47 4 87 9 89 11 6 5 715 -3 786 -9z
m8344 -272 c343 -174 690 -444 1112 -865 388 -387 675 -734 922 -1114 l39 -60
-64 55 c-34 30 -333 322 -663 649 -670 664 -822 812 -1010 985 -121 110 -348
308 -440 382 -22 18 -36 32 -32 33 5 0 66 -29 136 -65z m-1893 -126 c-49 -58
-59 -88 -60 -179 0 -107 27 -192 93 -292 137 -207 339 -330 535 -325 87 3 127
18 180 66 l29 26 -7 -30 c-17 -75 -102 -157 -184 -178 -309 -81 -741 279 -769
639 -10 136 44 240 152 290 27 13 51 21 53 19 3 -2 -7 -18 -22 -36z m316 -90
c151 -34 308 -218 316 -368 3 -65 2 -66 -15 -43 -110 141 -106 137 -121 114
-32 -49 -140 -6 -202 79 -38 52 -47 86 -31 112 7 11 9 23 4 27 -13 14 -112 50
-134 50 -36 0 -14 25 32 36 46 12 73 10 151 -7z m-4960 -300 c53 -5 105 -11
115 -13 10 -2 40 -7 66 -10 51 -8 75 -12 117 -21 56 -12 78 -17 150 -31 41 -8
93 -20 115 -26 22 -6 45 -12 50 -13 55 -12 483 -151 550 -179 17 -7 53 -22 80
-34 380 -158 666 -316 830 -460 69 -61 58 -62 -42 -4 -118 68 -325 163 -528
244 -82 32 -159 63 -170 68 -92 40 -619 223 -820 285 -49 15 -108 33 -130 41
-22 8 -67 21 -100 30 -33 9 -100 27 -150 40 -126 33 -306 74 -330 74 -11 0
-25 4 -32 8 -19 12 122 13 229 1z m7546 -990 c446 -262 1009 -842 1403 -1444
131 -200 255 -412 247 -421 -12 -12 -332 338 -843 921 -373 426 -539 609 -755
829 -96 99 -167 176 -157 173 10 -4 57 -30 105 -58z m-4542 -529 c230 -70 476
-284 570 -496 21 -47 22 -55 7 -43 -10 8 -72 59 -138 115 -189 158 -361 294
-472 373 -57 41 -103 76 -103 78 0 8 67 -6 136 -27z m4799 -255 c453 -362 666
-564 970 -920 261 -306 538 -705 755 -1086 90 -158 306 -587 299 -594 -3 -2
-42 59 -88 136 -171 287 -469 722 -689 1004 -192 246 -481 577 -603 690 l-42
40 35 -50 c435 -615 804 -1183 993 -1530 21 -38 55 -100 75 -137 132 -232 340
-684 423 -918 48 -134 131 -388 166 -510 12 -41 28 -93 36 -115 7 -22 25 -80
40 -130 15 -49 34 -108 42 -130 7 -22 10 -35 4 -30 -5 6 -151 247 -325 537
-323 539 -509 840 -625 1008 -141 206 -311 431 -311 413 0 -6 8 -21 18 -34 39
-51 280 -451 372 -620 35 -63 77 -139 93 -169 116 -209 309 -622 409 -870 64
-159 182 -489 204 -570 2 -8 17 -60 34 -115 27 -90 120 -454 134 -530 4 -16 9
-41 12 -55 13 -60 34 -164 39 -203 4 -23 8 -44 10 -47 2 -3 6 -30 10 -60 4
-30 13 -91 20 -135 8 -44 17 -111 20 -150 4 -38 9 -72 10 -75 2 -3 6 -43 9
-90 4 -47 9 -96 11 -110 3 -14 7 -56 10 -95 4 -38 8 -83 10 -100 1 -16 6 -61
10 -100 4 -38 10 -99 15 -135 4 -36 6 -66 5 -68 -1 -1 -37 104 -80 235 -227
691 -294 889 -385 1133 -80 215 -246 637 -285 725 -7 17 -16 41 -20 55 -4 14
-18 48 -30 75 -12 28 -37 84 -55 125 -17 41 -43 99 -56 128 -13 29 -24 55 -24
57 0 3 -9 24 -19 48 -11 23 -53 116 -94 207 -42 91 -92 201 -112 245 -20 44
-46 100 -57 125 -27 59 -163 340 -199 413 -16 31 -27 57 -25 57 4 0 226 -385
226 -392 0 -3 27 -54 61 -114 62 -110 357 -699 416 -830 18 -39 55 -118 82
-175 38 -82 135 -303 211 -484 4 -11 15 -37 24 -57 9 -21 28 -68 42 -105 32
-86 45 -100 29 -31 -89 377 -242 850 -400 1233 -92 224 -313 680 -430 890
-167 298 -342 591 -493 825 -150 232 -591 888 -621 924 -15 19 -15 19 7 4 25
-17 164 -130 372 -304 327 -274 632 -623 925 -1060 117 -173 133 -194 113
-149 -73 163 -316 596 -496 885 -23 36 -53 85 -68 110 -56 93 -391 593 -549
820 -214 309 -286 408 -704 985 -112 154 -197 275 -190 269 8 -6 131 -105 274
-219z m-4113 42 c175 -112 325 -321 392 -543 24 -81 42 -205 27 -188 -4 5 -45
70 -91 144 -45 74 -93 151 -105 170 -103 162 -148 230 -214 325 -97 138 -98
140 -79 133 8 -3 39 -22 70 -41z m3190 -1424 c107 -165 150 -356 124 -558 -10
-83 -56 -212 -107 -300 -68 -120 -173 -240 -155 -177 3 9 7 35 10 57 4 22 8
51 11 65 19 89 54 283 59 325 19 139 23 302 12 523 -4 72 -5 132 -2 132 2 0
24 -30 48 -67z m-238 -263 c27 -120 31 -144 43 -260 12 -116 7 -317 -11 -396
-2 -12 -7 -39 -10 -60 -4 -22 -13 -64 -22 -94 -78 -275 -209 -501 -414 -714
-120 -124 -292 -270 -265 -225 15 25 81 132 147 239 67 108 76 123 160 274
117 210 200 421 252 638 29 117 64 309 72 383 2 28 7 60 9 72 3 12 7 39 10 60
3 21 7 47 9 58 3 11 5 29 5 39 1 24 8 18 15 -14z m-4570 -1250 c3 -25 7 -54
10 -65 12 -62 20 -127 35 -310 10 -115 10 -581 0 -705 -12 -153 -20 -234 -24
-250 -2 -8 -7 -42 -10 -75 -3 -33 -12 -94 -20 -135 -8 -41 -17 -91 -20 -110
-8 -49 -74 -325 -92 -385 -8 -27 -33 -104 -55 -170 -37 -107 -59 -161 -115
-284 -19 -42 -123 -221 -128 -221 -4 0 7 42 35 140 36 126 106 454 145 685 3
17 8 46 11 65 3 19 7 46 9 60 5 32 34 227 39 260 3 14 7 45 10 70 7 57 15 116
26 205 9 74 7 98 -5 43 -12 -57 -90 -287 -140 -413 -45 -114 -55 -139 -106
-252 -189 -422 -436 -799 -689 -1054 -89 -89 -229 -209 -244 -209 -4 0 11 21
32 48 105 126 290 412 429 662 119 214 350 687 340 696 -2 2 -23 -24 -47 -59
-368 -526 -911 -1085 -1760 -1813 -259 -221 -294 -251 -284 -232 17 31 381
463 600 712 367 418 425 486 417 486 -5 0 -13 -4 -18 -9 -6 -5 -228 -134 -495
-286 -537 -307 -623 -358 -820 -483 -366 -233 -663 -466 -915 -717 -77 -77
-135 -133 -129 -125 167 231 440 516 704 736 287 238 473 373 1055 764 617
416 807 556 1060 787 180 164 360 371 461 528 40 63 206 387 238 465 10 25 30
70 44 100 13 30 37 84 53 118 16 35 29 68 29 72 0 5 15 41 34 82 19 40 46 102
59 138 14 36 36 90 50 120 45 100 87 198 87 205 0 20 83 176 90 169 5 -5 11
-29 14 -54z m6988 -1280 c90 -151 213 -388 293 -565 32 -71 69 -155 83 -185
13 -30 35 -84 48 -120 14 -36 29 -74 34 -85 17 -33 99 -263 141 -390 111 -342
175 -582 233 -875 25 -129 33 -177 42 -245 2 -22 6 -47 9 -55 2 -8 7 -46 10
-85 3 -38 8 -90 10 -115 8 -88 12 -236 7 -290 l-4 -54 -34 89 c-43 112 -52
136 -98 260 -41 111 -64 170 -77 200 -13 30 -59 155 -74 200 -7 22 -30 85 -50
140 -116 314 -281 804 -371 1105 -19 63 -48 158 -63 210 -70 229 -172 619
-187 710 -3 19 -8 38 -10 42 -4 7 -54 256 -54 271 0 16 34 -33 112 -163z
m1535 -618 c34 -53 83 -131 109 -172 26 -41 66 -104 89 -140 129 -200 344
-581 421 -746 20 -43 53 -115 74 -159 45 -95 167 -399 203 -505 63 -185 140
-441 151 -500 2 -14 7 -32 10 -40 3 -8 7 -26 10 -40 2 -14 18 -92 35 -175 42
-210 54 -279 66 -386 3 -31 7 -65 9 -75 5 -24 14 -116 22 -214 3 -41 8 -93 10
-115 14 -144 22 -612 15 -868 -5 -159 -20 -212 -22 -75 -1 46 -3 94 -4 108 -1
14 -6 102 -9 195 -4 94 -8 188 -10 210 -2 22 -7 74 -10 115 -4 41 -8 86 -11
100 -2 14 -7 59 -11 100 -8 88 -9 93 -17 145 -3 22 -9 63 -12 90 -3 28 -7 61
-10 75 -5 27 -11 60 -21 125 -59 381 -223 966 -355 1270 -147 339 -237 532
-214 460 4 -11 26 -78 51 -150 24 -71 59 -186 79 -255 19 -69 42 -147 50 -175
12 -42 39 -149 50 -205 2 -8 10 -42 18 -75 9 -33 18 -78 22 -100 3 -22 10 -56
15 -75 5 -19 11 -51 14 -70 3 -19 10 -57 15 -85 6 -27 13 -63 16 -80 10 -62
26 -156 29 -183 2 -15 6 -43 9 -62 4 -19 9 -59 12 -89 3 -30 8 -64 10 -75 4
-20 10 -81 21 -206 2 -30 6 -72 9 -94 20 -164 27 -761 12 -991 -11 -173 -22
-291 -31 -345 -3 -14 -7 -47 -10 -75 -13 -105 -29 -200 -36 -208 -4 -4 -7 86
-8 200 -1 114 -4 240 -6 278 -3 39 -8 142 -12 230 -3 88 -8 176 -9 195 -2 19
-6 73 -9 120 -10 129 -14 179 -21 245 -3 33 -7 83 -9 110 -2 28 -7 66 -10 85
-3 19 -8 64 -11 100 -3 36 -8 79 -10 95 -2 17 -7 53 -10 80 -8 62 -15 113 -20
144 -2 13 -7 45 -10 70 -4 25 -8 62 -11 81 -2 19 -11 76 -20 125 -9 50 -17
105 -20 124 -2 19 -6 46 -9 60 -2 14 -7 43 -10 65 -7 43 -12 69 -20 106 -3 14
-8 36 -10 50 -36 184 -85 422 -115 550 -12 52 -23 102 -25 110 -2 8 -15 64
-30 123 -28 111 -45 141 -26 45 6 -29 13 -69 15 -88 2 -19 9 -62 14 -95 6 -33
14 -82 17 -110 3 -27 13 -97 21 -155 20 -142 30 -217 39 -300 2 -19 8 -71 14
-115 5 -44 13 -116 17 -160 3 -44 8 -93 9 -110 3 -29 14 -149 20 -230 2 -23 6
-90 10 -150 4 -61 9 -128 11 -150 24 -261 24 -1304 -1 -1513 -3 -20 -7 -73 -9
-117 -11 -164 -17 -242 -27 -330 -10 -88 -12 -104 -24 -196 -3 -25 -8 -65 -10
-90 -3 -24 -8 -60 -11 -79 -3 -19 -8 -46 -9 -60 -13 -91 -35 -239 -40 -260 -2
-13 -7 -42 -11 -65 -11 -78 -63 -318 -70 -324 -3 -3 -4 3 -1 14 6 20 13 70 22
160 11 104 15 141 20 175 2 19 7 69 10 110 3 41 8 95 10 120 5 44 10 128 20
280 29 478 29 1216 1 1750 -6 106 -12 194 -21 330 -9 126 -25 314 -30 352 -2
14 -6 59 -10 100 -6 75 -12 137 -20 198 -10 80 -14 118 -20 177 -3 34 -8 70
-10 81 -4 25 -14 93 -20 152 -6 58 -14 119 -20 149 -4 22 -8 50 -21 151 -2 19
-9 60 -14 90 -5 30 -12 73 -15 95 -8 59 -24 157 -30 185 -5 24 -8 45 -20 115
-3 17 -12 71 -21 120 -9 50 -18 104 -21 120 -8 48 -72 361 -77 376 -3 8 -7 30
-10 49 -3 19 -10 50 -15 68 -5 18 -10 33 -10 35 1 5 -102 425 -166 682 -5 19
-5 19 7 2 7 -10 41 -62 75 -115z m472 -197 c152 -184 328 -472 439 -722 72
-163 185 -466 197 -532 2 -13 13 -53 24 -90 23 -75 71 -320 70 -354 0 -16 -5
-10 -15 18 -8 22 -18 49 -24 60 -5 11 -35 85 -66 165 -217 554 -461 1068 -702
1480 -47 80 -87 150 -89 155 -7 15 100 -101 166 -180z m542 -315 c58 -81 199
-320 199 -337 0 -2 11 -28 24 -56 68 -149 141 -372 151 -465 4 -35 4 -36 -11
-17 -30 39 -142 247 -342 635 -191 371 -252 492 -252 498 1 17 166 -168 231
-258z m-18446 -422 c-584 -690 -1489 -1562 -2190 -2109 -574 -448 -818 -584
-1153 -643 -40 -7 -74 -10 -77 -7 -12 20 401 341 715 556 495 339 1310 1008
2460 2019 179 157 326 286 328 286 2 0 -36 -46 -83 -102z m15841 -183 c66
-149 205 -533 258 -710 25 -85 101 -371 115 -430 12 -52 15 -67 31 -148 5 -27
12 -52 14 -55 2 -4 14 -65 25 -137 28 -164 29 -171 35 -222 44 -335 50 -431
51 -793 0 -274 -5 -406 -19 -525 -2 -16 -7 -57 -10 -90 -11 -98 -16 -134 -38
-250 -11 -60 -22 -121 -24 -135 -3 -14 -16 -71 -30 -128 -14 -57 -27 -111 -29
-120 -14 -72 -90 -313 -140 -447 -40 -108 -89 -225 -132 -314 -18 -39 -22 -42
-22 -20 -1 14 3 50 9 80 14 80 19 118 25 174 3 28 10 75 15 105 6 30 12 75 15
100 3 25 7 59 10 75 4 33 9 80 25 225 6 52 12 111 15 130 2 19 7 76 10 125 3
50 8 101 10 115 26 160 26 1204 0 1362 -2 13 -6 64 -10 113 -3 50 -8 113 -11
140 -2 28 -7 73 -9 100 -2 28 -7 70 -10 95 -3 25 -7 65 -10 90 -3 25 -9 79
-15 120 -5 41 -11 95 -14 120 -10 83 -17 135 -22 160 -5 26 -28 192 -38 268
-3 24 -12 82 -20 130 -8 48 -18 114 -21 147 -4 32 -8 62 -10 65 -2 4 -7 35
-10 71 -4 35 -10 78 -15 94 -5 17 -11 55 -14 85 -3 30 -8 64 -10 76 -2 12 -8
45 -11 75 -4 30 -9 63 -10 74 -2 11 -6 45 -9 75 -6 62 -7 64 50 -65z m-4432
-667 c3 -18 8 -44 11 -58 3 -14 8 -41 10 -60 3 -19 7 -44 10 -55 25 -118 25
-593 1 -855 -13 -140 -18 -182 -21 -199 -2 -11 -7 -51 -10 -88 -4 -37 -8 -75
-10 -83 -3 -8 -7 -33 -10 -55 -48 -345 -158 -834 -265 -1180 -15 -49 -38 -124
-50 -165 -80 -269 -235 -649 -390 -955 -102 -200 -122 -237 -228 -400 -48 -74
-170 -235 -178 -235 -3 0 11 28 31 63 53 91 163 323 222 465 98 240 300 802
318 890 2 9 13 46 24 82 40 128 121 412 136 480 5 19 113 457 122 490 3 14 8
34 9 45 2 11 8 36 13 55 5 19 17 71 25 115 9 44 23 111 31 148 8 37 17 82 21
100 3 18 12 68 20 112 19 102 31 171 38 215 4 19 11 58 16 85 5 28 12 73 16
100 4 28 8 55 9 61 2 6 6 37 9 70 3 32 9 76 12 97 10 66 13 90 19 177 4 47 10
112 14 146 4 33 7 142 7 242 -1 174 5 220 18 150z m3790 -658 c49 -156 107
-345 110 -364 2 -11 18 -77 34 -146 17 -69 33 -136 36 -150 2 -14 7 -36 10
-50 7 -28 7 -31 40 -235 22 -138 28 -181 42 -335 2 -30 7 -68 9 -85 7 -39 19
-344 19 -465 0 -99 -12 -403 -18 -455 -2 -16 -7 -66 -12 -110 -4 -44 -8 -82
-9 -85 0 -3 -5 -32 -9 -65 -14 -109 -17 -129 -32 -215 -13 -70 -30 -150 -69
-320 -72 -312 -202 -672 -358 -985 -57 -115 -127 -238 -132 -233 -2 2 14 84
36 183 70 314 163 796 184 948 4 27 8 57 10 66 2 10 6 42 10 72 3 30 10 81 15
114 5 33 12 83 15 110 5 47 11 99 20 170 2 17 7 62 10 100 3 39 8 93 11 120 8
72 11 123 19 275 4 74 10 188 14 252 12 214 3 1068 -14 1423 -2 33 -6 159 -10
280 -3 121 -9 229 -11 240 -10 38 15 -7 30 -55z m-4389 -917 c-3 -65 -7 -131
-9 -148 -3 -16 -7 -59 -11 -95 -16 -161 -70 -441 -130 -675 -15 -55 -28 -107
-30 -115 -35 -155 -203 -654 -315 -935 -29 -72 -60 -150 -69 -175 -24 -62 -96
-229 -138 -320 -19 -41 -48 -106 -66 -145 -35 -78 -265 -534 -277 -550 -4 -5
-21 -35 -37 -65 -17 -30 -40 -72 -52 -92 -11 -21 -30 -55 -42 -75 -167 -298
-423 -675 -643 -948 -116 -144 -400 -441 -445 -465 -12 -6 13 31 56 82 87 103
222 286 330 448 155 232 358 574 508 855 26 50 65 122 85 160 60 111 252 493
289 575 18 41 56 122 84 180 156 328 374 850 517 1240 23 63 46 124 50 135 48
115 239 731 257 825 2 14 15 70 28 126 14 55 27 117 29 137 6 45 16 104 22
135 10 49 13 16 9 -95z m-10883 0 c-41 -50 -340 -345 -472 -464 -895 -811
-2520 -2006 -3980 -2929 -336 -212 -594 -370 -740 -452 -25 -14 -63 -36 -85
-48 -207 -120 -561 -303 -665 -343 -199 -78 -267 -80 -337 -14 -91 86 -49 232
130 457 110 139 537 569 777 781 717 637 1578 1315 2445 1927 75 53 51 31
-335 -299 -1412 -1207 -2296 -2028 -2665 -2474 -70 -84 -127 -166 -121 -172 3
-3 79 29 175 75 20 9 70 35 111 57 41 23 109 60 150 82 236 127 919 540 1272
768 43 28 117 75 165 105 48 30 149 96 225 145 76 50 193 126 260 169 68 44
301 198 518 342 889 591 1560 1056 2230 1547 322 235 852 658 934 746 40 42
44 39 8 -6z m2876 -106 c-103 -155 -279 -291 -467 -363 -35 -13 -78 -27 -95
-30 -17 -3 -49 -9 -71 -14 -82 -19 -290 -6 -318 19 -4 4 39 25 95 46 57 21
131 51 166 66 34 16 65 29 68 29 2 0 150 72 327 160 179 89 323 156 325 150 2
-6 -11 -35 -30 -63z m1367 -45 c-145 -270 -382 -494 -637 -604 -136 -58 -196
-71 -333 -72 -173 -1 -182 7 -60 55 130 51 240 106 345 171 96 59 333 235 460
343 183 154 264 217 268 206 2 -6 -17 -51 -43 -99z m951 -198 c-8 -81 -11 -94
-62 -199 -88 -184 -264 -319 -469 -360 -73 -15 -202 -14 -228 2 -4 2 -20 7
-34 9 -15 3 -29 6 -30 8 -2 2 27 15 64 31 313 129 471 242 673 484 46 55 86
101 89 101 2 0 1 -34 -3 -76z m9482 -229 c32 -156 59 -337 67 -440 3 -33 8
-103 12 -155 15 -184 7 -772 -12 -869 -2 -11 -6 -52 -10 -93 -14 -164 -86
-559 -135 -740 -59 -222 -125 -430 -178 -563 -64 -161 -85 -210 -127 -300
-126 -271 -250 -487 -393 -684 -35 -49 -39 -46 -18 14 8 22 27 81 42 130 14
50 39 131 54 180 63 201 149 512 235 845 30 117 112 488 140 635 20 105 40
210 45 235 6 25 12 61 15 80 3 19 10 58 15 85 5 28 12 70 15 95 3 25 7 56 10
69 2 13 7 49 11 80 3 31 8 59 10 62 2 4 8 46 14 95 6 49 13 103 15 119 5 38
36 308 40 355 2 19 6 58 10 85 5 51 9 81 19 190 6 57 10 95 21 230 8 91 16
175 21 222 5 55 16 174 17 191 1 39 19 -20 45 -153z m-17998 -365 c-19 -16
-195 -156 -390 -311 -975 -776 -1955 -1592 -2760 -2299 -511 -448 -700 -621
-1215 -1111 -574 -546 -1105 -1033 -1105 -1014 0 13 60 115 136 230 284 433
642 819 1375 1481 1067 963 2501 2075 3669 2845 113 74 230 151 260 171 66 44
77 47 30 8z m22037 -32 c-3 -7 -5 -2 -5 12 0 14 2 19 5 13 2 -7 2 -19 0 -25z
m-18478 -566 c-13 -10 -76 -54 -139 -97 -274 -187 -353 -242 -700 -484 -248
-173 -622 -438 -735 -521 -27 -20 -117 -86 -200 -145 -704 -510 -1573 -1170
-2260 -1718 -756 -604 -1286 -1057 -1597 -1368 -109 -108 -195 -192 -191 -185
179 306 757 921 1423 1512 917 815 2006 1624 3070 2281 134 83 368 223 415
248 11 6 67 39 125 72 58 33 137 78 175 98 39 21 95 52 125 68 87 49 494 256
504 257 5 0 -2 -8 -15 -18z m9706 -101 c-3 -33 -8 -70 -10 -82 -3 -13 -7 -41
-11 -64 -12 -83 -85 -345 -138 -495 -57 -163 -68 -192 -137 -359 -44 -107
-238 -504 -307 -626 -22 -38 -60 -108 -86 -154 -124 -221 -378 -598 -553 -821
-265 -337 -556 -628 -790 -789 l-78 -54 94 99 c270 286 607 738 937 1259 290
457 663 1140 864 1580 55 121 135 325 175 448 21 64 40 117 42 117 3 0 2 -27
-2 -59z m4093 -227 c15 -163 7 -647 -12 -799 -2 -16 -7 -57 -11 -90 -3 -33 -8
-71 -10 -85 -2 -14 -7 -45 -10 -70 -3 -25 -10 -67 -15 -95 -5 -27 -12 -66 -15
-85 -5 -28 -54 -252 -71 -322 -2 -10 -6 -26 -8 -35 -49 -214 -177 -588 -296
-863 -187 -433 -447 -855 -708 -1148 -36 -40 -67 -71 -69 -68 -2 2 7 28 21 57
13 30 41 95 61 144 20 50 45 108 55 130 54 121 310 775 350 895 10 30 46 134
80 230 83 237 111 321 116 345 2 11 14 52 28 90 23 66 67 207 72 231 1 5 20
71 43 145 38 128 108 373 116 413 3 10 11 42 19 70 15 51 106 402 110 421 7
41 141 573 144 571 1 -2 6 -39 10 -82z m-4882 -551 c-3 -21 -9 -56 -12 -78
-47 -312 -307 -860 -609 -1285 -203 -286 -481 -588 -685 -745 -71 -55 -228
-155 -243 -155 -5 0 30 42 79 93 441 458 1216 1615 1450 2165 10 23 20 42 22
42 2 0 1 -17 -2 -37z m-8632 -54 c-70 -78 -568 -506 -904 -775 -799 -641
-1817 -1360 -2535 -1791 -94 -57 -122 -73 -212 -124 -21 -12 -44 -26 -51 -31
-7 -6 -15 -9 -17 -6 -10 10 369 343 685 604 393 323 687 550 1215 939 315 232
899 631 1240 848 177 112 583 357 594 357 2 0 -4 -10 -15 -21z m-3681 -727
c-265 -227 -896 -713 -1663 -1281 -994 -737 -1437 -1082 -1795 -1399 -312
-276 -291 -263 -187 -117 426 597 1232 1305 2277 2002 207 138 350 231 450
293 175 108 384 234 425 257 25 14 65 37 90 51 25 14 61 35 80 47 19 12 89 51
155 86 66 35 143 76 170 91 73 39 73 34 -2 -30z m16572 -39 c-4 -38 -9 -81
-11 -98 -2 -16 -6 -55 -9 -85 -4 -30 -11 -82 -17 -115 -5 -33 -12 -73 -15 -90
-6 -44 -32 -170 -38 -186 -2 -8 -6 -25 -9 -39 -2 -14 -12 -54 -21 -90 -9 -36
-19 -72 -20 -80 -19 -81 -65 -234 -111 -370 -235 -691 -597 -1349 -1005 -1825
-161 -188 -474 -473 -394 -358 28 40 178 303 288 503 16 30 43 80 60 110 44
80 414 817 469 935 26 55 92 199 148 320 56 121 110 238 121 260 10 22 54 121
98 220 43 99 90 205 104 235 14 30 52 119 86 197 33 79 69 162 80 185 18 40
145 331 177 406 8 17 17 32 20 32 3 0 2 -30 -1 -67z m-1025 -1175 c-5 -18 -16
-67 -25 -108 -21 -91 -106 -353 -145 -445 -5 -11 -21 -49 -36 -85 -38 -93
-154 -320 -220 -430 -182 -304 -436 -594 -648 -741 -31 -22 -56 -37 -56 -34 0
3 48 73 106 157 212 300 462 719 834 1393 18 33 53 93 77 133 24 41 43 75 43
78 0 6 70 114 74 114 2 0 0 -15 -4 -32z m-19472 -75 c-295 -348 -583 -781
-885 -1333 -68 -123 -154 -284 -231 -430 -88 -167 -267 -501 -292 -545 -13
-22 -34 -60 -48 -85 -14 -25 -56 -94 -95 -155 -174 -275 -301 -383 -403 -340
-68 28 -81 118 -40 265 34 119 49 157 122 306 219 446 664 1062 1180 1631 191
211 807 821 692 686z m18758 -340 c-4 -16 -8 -39 -11 -53 -10 -58 -80 -268
-116 -349 -184 -413 -434 -726 -734 -917 -41 -26 -35 -15 82 162 54 83 123
189 153 237 337 536 610 947 628 947 2 0 1 -12 -2 -27z m-713 -415 c-63 -282
-260 -574 -499 -740 -56 -39 -97 -62 -132 -73 -23 -7 -23 -6 8 52 52 94 79
135 188 291 104 147 143 196 257 325 50 57 169 167 180 167 2 0 1 -10 -2 -22z
m-20003 -102 c0 -8 -247 -335 -358 -476 -64 -80 -213 -262 -332 -405 -118
-143 -237 -288 -264 -322 -27 -35 -50 -63 -52 -63 -3 0 3 26 18 90 74 304 419
776 755 1032 117 89 233 161 233 144z m9995 -215 c-28 -26 -450 -346 -875
-663 -363 -270 -567 -419 -1063 -775 -385 -276 -419 -300 -511 -364 -45 -30
-214 -147 -376 -259 -343 -237 -1058 -712 -1340 -889 -107 -68 -211 -134 -230
-146 -159 -103 -558 -344 -740 -447 -232 -131 -298 -168 -465 -255 -324 -171
-562 -278 -950 -428 -65 -26 -321 -114 -333 -115 -4 0 -36 -9 -72 -20 -160
-47 -453 -111 -585 -127 -86 -10 -433 -11 -495 -1 -138 22 -217 44 -325 88
-81 33 -155 73 -155 85 0 2 75 4 168 5 92 1 181 3 197 5 112 12 154 18 270 40
72 13 144 27 160 29 86 15 439 111 570 155 280 94 625 229 823 322 35 16 65
29 67 29 6 0 169 74 360 163 104 48 659 327 790 397 372 198 1160 655 1485
861 14 9 86 53 160 99 74 45 151 92 170 105 19 12 89 56 155 97 214 134 508
320 575 363 36 23 110 69 165 104 55 34 208 131 340 216 132 84 274 175 315
201 41 27 131 85 200 129 69 45 161 105 205 133 138 89 305 197 440 285 72 47
195 127 275 179 326 212 409 266 519 340 123 81 137 89 106 59z m1055 -376 c0
-2 -42 -37 -92 -78 -51 -41 -205 -165 -343 -276 -662 -535 -1252 -986 -1800
-1375 -137 -98 -268 -191 -290 -207 -49 -35 -618 -415 -735 -491 -168 -109
-460 -284 -637 -383 -127 -71 -562 -288 -603 -300 -14 -4 -53 -21 -86 -36
-148 -69 -423 -164 -584 -203 -148 -35 -203 -41 -385 -40 -138 0 -170 3 -235
24 -124 38 -191 78 -127 75 61 -3 270 47 402 96 253 94 564 228 795 344 199
99 424 219 737 391 69 38 554 313 623 354 129 75 626 373 660 395 19 13 118
74 220 137 191 119 388 243 615 388 72 46 176 113 233 149 57 36 127 82 157
101 30 19 121 78 202 129 82 52 231 149 333 216 102 67 213 139 248 160 34 22
87 56 117 75 145 93 567 357 573 359 1 1 2 -1 2 -4z m820 -301 c-344 -347
-909 -817 -1445 -1200 -707 -507 -1435 -902 -1860 -1010 -16 -4 -34 -8 -40
-10 -65 -16 -125 -23 -119 -13 3 5 10 9 15 9 29 0 263 127 439 238 252 159
865 578 1522 1041 482 340 1046 719 1368 921 207 129 224 140 230 140 2 0 -47
-52 -110 -116z m-6080 42 c0 -8 -301 -247 -475 -377 -546 -410 -1284 -890
-1993 -1296 -129 -73 -235 -133 -237 -133 -2 0 -50 -26 -107 -59 -303 -171
-914 -482 -1303 -661 -33 -15 -95 -44 -138 -64 -43 -20 -80 -36 -82 -36 -3 0
-28 -11 -57 -24 -204 -94 -590 -253 -722 -298 -33 -11 -65 -24 -71 -28 -5 -3
-53 -21 -105 -39 -52 -18 -104 -37 -115 -42 -26 -11 -258 -88 -406 -133 -239
-73 -566 -151 -764 -181 -110 -16 -199 -25 -297 -30 l-113 -4 65 14 c264 60
618 178 965 322 275 114 550 234 750 328 528 248 1259 612 1820 905 61 32 160
84 220 115 178 94 264 139 370 195 119 63 477 255 555 297 30 17 87 47 125 68
39 20 129 69 200 108 72 38 164 88 205 110 41 22 101 55 133 74 32 18 60 33
62 33 2 0 30 15 62 34 32 18 87 49 123 68 36 20 126 69 200 110 74 41 164 91
200 110 36 20 114 63 174 97 60 34 111 61 113 61 2 0 20 10 41 23 20 13 64 38
97 57 33 18 107 59 165 90 58 32 157 88 220 124 118 68 120 69 120 62z m1560
-58 c-85 -77 -375 -320 -545 -457 -1103 -890 -2573 -1862 -3575 -2364 -156
-78 -264 -127 -579 -263 -18 -8 -84 -33 -145 -55 -61 -22 -124 -46 -141 -54
-16 -7 -77 -27 -135 -45 -58 -17 -141 -42 -186 -56 -44 -13 -123 -33 -174 -45
-51 -11 -96 -22 -99 -23 -5 -4 -157 -32 -223 -42 -16 -2 -43 -6 -60 -9 -85
-14 -173 -20 -288 -19 -156 0 -220 4 -290 21 -30 7 -73 15 -94 19 -94 14 -279
99 -353 162 l-28 23 55 -8 c100 -14 490 -6 518 10 4 3 36 8 72 11 36 4 83 11
105 16 22 5 51 11 65 14 113 21 397 90 495 119 83 26 380 126 449 153 124 48
401 161 455 185 24 11 64 29 90 39 44 17 94 39 226 100 33 15 92 42 130 60
165 75 836 415 870 440 6 4 53 30 105 57 52 28 111 59 130 70 300 169 414 234
690 396 291 170 385 226 690 412 157 96 594 370 687 430 50 33 111 72 135 86
147 90 722 472 896 596 48 34 89 62 92 62 3 0 -15 -18 -40 -41z m-7850 -77
c-17 -32 -227 -377 -320 -526 -48 -77 -118 -189 -155 -250 -38 -60 -83 -132
-100 -160 -226 -355 -405 -650 -448 -738 -10 -22 -21 -37 -24 -34 -4 5 7 85
22 158 47 230 221 595 435 913 145 217 373 478 528 604 69 57 78 61 62 33z
m13289 -88 c-127 -163 -395 -444 -599 -627 -581 -523 -1188 -894 -1601 -981
-39 -8 -72 -15 -75 -15 -2 0 65 46 149 103 134 91 277 198 757 570 377 293
739 558 990 727 132 89 377 240 389 240 2 0 -3 -8 -10 -17z m-10280 -165
c-776 -872 -1645 -1653 -2410 -2166 -122 -81 -316 -202 -325 -202 -3 0 -18 -8
-32 -19 -48 -33 -240 -130 -330 -167 -48 -19 -96 -39 -107 -44 -20 -9 -68 -24
-72 -22 -2 0 -26 -6 -54 -13 -74 -20 -182 -14 -216 11 -86 65 -110 148 -71
253 42 111 160 274 342 474 110 120 345 341 354 332 10 -10 -155 -324 -279
-530 -156 -261 -169 -283 -169 -295 0 -53 419 146 765 362 677 424 1462 1039
2505 1962 91 80 167 146 169 146 2 0 -30 -37 -70 -82z m-3104 -658 c-46 -214
-182 -540 -340 -815 -262 -456 -702 -979 -1049 -1245 -17 -13 -19 -13 -10 0
17 30 118 176 209 305 51 72 171 243 267 380 96 138 195 279 220 315 205 294
433 650 603 942 60 103 110 186 111 185 2 -1 -4 -31 -11 -67z m-2280 -1151
c-573 -579 -2162 -2083 -3930 -3719 -2010 -1859 -3908 -3541 -4775 -4231 -486
-386 -722 -537 -746 -474 -44 113 552 734 1741 1815 1208 1099 3042 2688 5655
4901 520 440 798 675 1579 1333 118 100 289 245 380 323 91 78 170 142 176
142 5 1 -31 -40 -80 -90z m17921 -166 c-7 -144 -15 -228 -31 -324 -2 -13 -6
-42 -10 -64 -3 -22 -7 -47 -10 -55 -2 -8 -6 -31 -9 -50 -3 -19 -8 -46 -11 -60
-2 -14 -7 -38 -11 -55 -13 -70 -67 -277 -95 -370 -95 -310 -248 -627 -398
-827 -38 -50 -52 -59 -45 -30 2 9 15 73 29 142 21 111 51 246 75 350 5 19 15
64 23 100 9 36 29 117 47 180 17 63 33 122 35 131 26 116 187 588 239 704 8
17 31 68 51 115 48 108 114 230 123 230 2 0 1 -53 -2 -117z m5168 -345 c-286
-398 -935 -1067 -1509 -1553 -572 -485 -1103 -853 -1581 -1098 -112 -57 -333
-152 -389 -167 -16 -4 -43 -13 -60 -20 -16 -6 -32 -11 -35 -11 -3 0 -20 -4
-39 -9 -19 -5 -36 -8 -38 -6 -2 2 34 23 79 46 275 143 801 529 1458 1069 511
420 1940 1619 2084 1748 33 29 61 53 64 53 2 0 -13 -24 -34 -52z m-5818 -165
c-8 -105 -25 -283 -30 -309 -2 -12 -7 -39 -11 -60 -12 -81 -16 -102 -36 -194
-11 -52 -26 -117 -34 -145 -8 -27 -17 -66 -20 -85 -21 -122 -153 -521 -250
-760 -46 -112 -55 -134 -117 -270 -60 -132 -159 -321 -246 -471 -88 -150 -240
-375 -247 -367 -3 2 3 26 11 53 9 28 17 55 18 60 12 45 38 128 115 361 80 241
132 393 215 624 15 41 43 120 63 175 19 55 41 114 48 130 7 17 18 44 23 60 6
17 26 71 45 120 19 50 60 160 92 245 32 85 68 182 80 215 12 33 46 119 75 190
29 72 60 153 70 180 37 99 133 325 138 325 2 0 1 -35 -2 -77z m4648 -355
c-143 -244 -559 -681 -992 -1043 -312 -260 -731 -553 -1007 -705 -33 -18 -89
-49 -125 -70 -36 -20 -101 -54 -145 -75 -44 -20 -98 -46 -120 -57 -44 -21
-317 -132 -352 -142 -12 -4 -30 -9 -40 -11 -10 -3 -59 -16 -109 -30 -51 -13
-107 -27 -125 -30 l-34 -5 40 21 c468 246 1168 734 2370 1655 204 156 431 333
505 393 74 61 136 110 138 111 2 0 0 -6 -4 -12z m-5350 -110 c-11 -249 -21
-347 -49 -523 -32 -193 -33 -201 -80 -395 -37 -153 -120 -425 -174 -570 -230
-617 -529 -1171 -877 -1625 -82 -107 -182 -225 -157 -185 5 8 16 31 23 50 8
19 28 67 45 105 34 74 45 99 200 450 54 121 105 238 115 260 85 191 130 295
130 300 0 2 11 28 24 57 14 29 48 109 77 178 28 69 57 139 64 155 59 132 163
396 234 590 29 77 56 149 60 160 15 34 107 294 151 425 39 116 79 243 165 530
54 179 56 180 49 38z m4275 -220 c-83 -158 -388 -495 -649 -718 -544 -466
-1284 -859 -1800 -956 -14 -3 -51 -11 -82 -18 -32 -7 -55 -10 -53 -5 5 7 86
55 205 121 615 343 1730 1082 2265 1502 66 52 121 95 123 95 1 1 -3 -9 -9 -21z
m-4968 -520 c-6 -46 -17 -119 -26 -163 -15 -85 -17 -93 -35 -170 -6 -27 -14
-61 -16 -75 -3 -14 -8 -34 -11 -45 -4 -11 -8 -25 -9 -31 -3 -17 -54 -182 -79
-259 -23 -69 -107 -287 -160 -415 -31 -75 -197 -413 -251 -510 -134 -243 -341
-565 -492 -765 -178 -235 -427 -520 -559 -640 l-63 -57 39 69 c21 37 69 120
106 183 37 63 91 156 120 205 29 50 74 126 100 170 47 79 81 136 151 258 52
90 71 123 94 162 50 87 59 103 89 153 17 29 31 55 31 57 0 3 20 39 45 81 25
41 45 77 45 79 0 2 16 32 36 67 137 241 219 397 389 738 111 222 295 611 295
624 0 3 19 46 43 98 24 51 61 135 82 185 21 51 41 91 43 89 2 -3 -1 -42 -7
-88z m3628 -15 c-76 -128 -262 -325 -429 -454 -225 -174 -456 -309 -792 -463
-143 -65 -452 -161 -588 -182 -19 -3 -38 -8 -41 -9 -3 -2 -39 -7 -80 -10 -66
-6 -72 -5 -54 8 42 30 528 310 730 422 39 21 86 47 105 58 19 11 181 101 360
199 179 99 343 190 365 203 92 51 334 194 385 228 30 20 56 36 58 36 2 1 -6
-16 -19 -36z m-4443 -639 c-3 -36 -8 -69 -10 -73 -2 -3 -7 -28 -11 -56 -3 -27
-15 -81 -26 -120 -10 -38 -28 -102 -39 -141 -10 -39 -35 -108 -55 -154 -19
-47 -35 -88 -35 -93 0 -14 -158 -329 -202 -404 -247 -414 -593 -815 -877
-1013 l-34 -23 28 49 c16 27 37 61 47 76 10 14 18 28 18 31 0 6 247 412 316
520 13 20 34 54 47 75 13 20 35 55 49 77 14 22 54 86 89 143 35 56 81 131 103
165 91 147 366 608 416 697 79 143 175 310 179 310 1 0 0 -30 -3 -66z m-8436
-430 c-207 -70 -312 -100 -625 -179 -229 -57 -346 -84 -570 -129 -44 -9 -91
-19 -105 -22 -14 -3 -50 -9 -80 -14 -30 -6 -66 -12 -80 -15 -14 -3 -43 -8 -65
-11 -22 -2 -46 -7 -53 -9 -10 -4 -60 -12 -232 -40 -27 -4 -71 -10 -140 -20
-25 -3 -56 -8 -70 -10 -48 -7 -185 -24 -245 -30 -33 -3 -78 -8 -100 -10 -278
-30 -486 -40 -795 -40 -146 0 -299 4 -340 8 -41 4 -102 10 -135 13 -64 6 -196
31 -204 39 -2 3 16 5 40 6 54 1 85 3 169 14 36 4 76 9 90 11 14 2 52 6 85 9
33 3 83 10 110 15 28 5 76 12 108 15 32 3 82 10 110 16 45 8 222 35 287 44 14
2 41 6 60 9 81 14 97 16 140 21 25 3 56 8 70 10 40 8 62 12 113 19 27 4 59 9
70 12 12 2 42 6 67 9 25 3 56 7 70 10 44 9 64 13 120 20 30 4 64 9 75 11 45 9
75 14 170 28 94 14 122 19 211 31 20 3 39 7 43 9 3 2 38 7 76 10 39 4 77 9 85
11 8 3 31 6 50 9 84 11 137 18 160 22 45 8 154 23 210 29 30 3 66 8 80 10 28
4 103 13 165 20 22 3 56 7 75 10 34 5 85 11 165 20 22 2 65 7 95 11 75 8 104
11 180 18 36 4 76 9 90 11 14 2 72 7 130 10 58 4 106 8 107 9 2 2 31 3 66 4
l62 1 -165 -55z m7607 -221 c-11 -171 -61 -324 -168 -518 -111 -201 -316 -424
-483 -524 -48 -29 -89 -51 -91 -49 -9 8 104 241 186 385 151 264 525 803 557
803 3 0 2 -44 -1 -97z m-19017 -175 c-558 -536 -1613 -1498 -2239 -2043 -101
-88 -274 -239 -385 -335 -576 -502 -1272 -1084 -1356 -1135 -38 -23 284 369
478 583 473 520 1203 1219 1802 1727 612 519 1103 892 1499 1137 113 70 301
178 311 177 3 0 -47 -50 -110 -111z m4674 64 c-94 -86 -505 -452 -699 -622
-115 -101 -264 -232 -330 -290 -66 -58 -235 -207 -375 -330 -1335 -1174 -1767
-1564 -2024 -1824 -71 -72 -123 -120 -114 -106 8 14 35 58 59 99 50 84 229
324 339 456 304 364 798 861 1253 1259 575 503 1342 1069 1787 1318 25 14 65
37 90 51 60 35 62 33 14 -11z m8151 -44 c8 -7 -361 -125 -402 -129 -5 -1 -15
-5 -23 -9 -18 -10 -328 -90 -505 -131 -71 -17 -146 -34 -165 -39 -47 -11 -477
-97 -515 -103 -16 -3 -61 -10 -100 -17 -38 -6 -83 -13 -100 -16 -16 -2 -41 -7
-55 -9 -14 -3 -43 -7 -65 -10 -22 -3 -51 -7 -64 -10 -25 -5 -143 -21 -216 -30
-22 -3 -51 -7 -65 -10 -14 -2 -65 -7 -115 -10 -49 -4 -92 -8 -95 -10 -4 -3
-59 -8 -205 -20 -179 -16 -308 -20 -585 -20 -179 0 -356 3 -395 8 -38 4 -95
10 -125 13 -30 3 -57 7 -60 9 -3 2 -26 6 -50 10 -87 13 -71 22 51 30 68 5 126
9 129 10 4 1 69 9 160 20 14 2 41 6 60 9 19 3 51 8 70 10 19 3 69 10 110 16
41 6 90 13 109 16 19 2 43 6 55 9 12 2 46 7 77 10 31 3 67 8 80 10 65 13 141
26 204 34 110 16 146 21 208 32 32 6 74 12 95 15 20 2 75 11 122 19 93 16 260
42 355 55 33 5 101 16 150 24 50 8 110 17 135 20 25 3 54 7 65 10 11 2 43 7
70 10 28 4 66 10 85 12 19 3 46 7 60 10 14 2 63 9 110 14 102 13 147 19 180
25 14 3 52 7 85 10 33 4 71 8 85 10 14 2 44 7 68 10 207 25 287 35 347 40 33
3 76 8 95 10 67 9 189 20 340 30 52 4 96 8 97 9 5 5 43 0 48 -6z m-9641 -2200
c-17 -28 -202 -269 -283 -368 -894 -1100 -2502 -2481 -4226 -3628 -234 -157
-252 -168 -530 -343 -176 -110 -523 -320 -617 -372 -26 -15 -98 -55 -160 -91
-223 -126 -848 -446 -872 -446 -5 0 256 199 580 443 681 511 894 671 1085 817
75 58 273 209 439 335 507 386 564 430 829 634 1824 1404 3059 2397 3651 2934
58 53 106 96 108 96 2 1 0 -5 -4 -11z m12152 -611 c98 -106 174 -272 189 -412
l5 -50 -40 45 c-72 81 -152 211 -216 349 -34 75 -65 146 -69 159 l-6 22 35
-21 c20 -11 66 -53 102 -92z m351 -111 c63 -72 127 -208 148 -316 12 -62 17
-284 7 -310 -9 -24 -11 -23 -34 30 -30 67 -54 143 -102 320 -48 175 -83 302
-92 324 -11 30 27 4 73 -48z m-10538 -68 c-39 -56 -336 -444 -493 -643 -1437
-1828 -3128 -3484 -4501 -4407 -198 -133 -379 -248 -391 -248 -3 0 -18 -8 -32
-19 -41 -28 -268 -144 -352 -178 -80 -34 -192 -63 -219 -58 -9 2 -19 4 -22 4
-4 1 -10 8 -13 17 -15 39 118 198 428 513 641 648 1922 1817 3826 3492 659
579 1782 1558 1788 1559 2 0 -7 -15 -19 -32z m-5335 -230 c-18 -31 -169 -213
-303 -366 -191 -219 -696 -724 -936 -937 -641 -568 -1221 -972 -1711 -1190
-74 -33 -184 -75 -184 -71 0 2 -23 -5 -51 -15 -28 -11 -53 -18 -56 -15 -2 2
35 28 84 57 279 168 650 463 1673 1329 679 575 1061 890 1400 1153 93 71 95
73 84 55z m16325 -135 c1 -54 7 -140 17 -257 9 -109 13 -402 5 -415 -16 -25
-87 149 -106 259 -14 81 -17 219 -5 271 6 30 13 63 16 74 6 31 53 125 62 125
5 0 10 -26 11 -57z m377 -58 c3 -44 8 -100 10 -125 8 -90 15 -441 8 -451 -16
-26 -85 132 -104 238 -16 91 -8 242 17 315 19 55 51 113 58 106 2 -2 7 -39 11
-83z m5023 -826 c74 -75 89 -149 34 -170 -58 -22 -142 19 -167 81 -19 48 -20
80 -5 114 22 47 76 37 138 -25z m145 -354 c116 -59 148 -103 139 -192 -6 -53
-6 -53 43 -98 l49 -46 -35 -30 c-66 -56 -133 -60 -160 -10 -7 15 -3 27 18 57
54 74 47 87 -50 92 -15 1 -34 9 -43 18 -14 15 -12 20 31 66 42 45 45 52 31 63
-9 6 -39 12 -68 14 -65 3 -89 15 -89 44 0 53 56 62 134 22z m422 -660 l36 -15
-49 -36 c-26 -21 -65 -52 -86 -71 -51 -45 -77 -41 -96 13 -13 36 -12 43 5 68
34 53 119 71 190 41z m186 -288 c24 -18 53 -52 65 -77 20 -38 21 -47 9 -64
-47 -71 -176 -5 -192 99 -12 81 41 100 118 42z m-5095 -55 c25 -16 35 -65 22
-109 -22 -81 -78 -97 -113 -33 -42 79 25 184 91 142z m5264 -273 c24 -13 109
-126 109 -145 0 -8 -8 -14 -19 -14 -10 0 -35 -12 -57 -26 -36 -25 -39 -25 -51
-8 -24 33 -52 122 -47 150 9 50 28 63 65 43z m-5168 -173 c37 -15 78 -58 95
-98 11 -26 9 -30 -23 -55 -19 -16 -35 -36 -35 -46 0 -10 23 -42 50 -71 28 -29
50 -55 50 -59 0 -3 -28 -5 -62 -5 -39 0 -80 -7 -108 -19 -55 -22 -80 -23 -93
-1 -8 13 -4 24 21 52 44 51 44 99 1 125 -35 22 -69 67 -69 93 0 28 52 79 90
88 49 11 47 11 83 -4z m-14064 -138 c-670 -727 -1516 -1565 -2054 -2033 -459
-399 -743 -595 -885 -612 -37 -4 -48 -1 -64 16 -23 26 -18 48 31 128 206 339
1213 1252 2193 1989 322 242 848 614 868 614 2 0 -38 -46 -89 -102z m19437 47
c13 -9 34 -37 45 -63 12 -26 41 -89 65 -139 l43 -93 98 -64 c54 -35 107 -73
117 -85 19 -21 19 -22 -4 -70 -12 -27 -20 -57 -16 -66 3 -9 27 -25 53 -36 83
-35 93 -42 99 -66 4 -15 0 -31 -11 -43 -10 -11 -15 -23 -11 -28 4 -4 42 -25
84 -47 42 -22 78 -47 80 -55 2 -10 -11 -23 -33 -33 -52 -25 -35 -45 77 -96
112 -50 141 -66 146 -79 1 -5 -15 -21 -37 -35 -26 -17 -38 -32 -35 -41 3 -8
54 -34 114 -56 60 -23 123 -55 142 -71 l33 -29 -34 -28 c-19 -17 -30 -32 -24
-35 6 -4 64 -22 130 -41 181 -51 220 -78 145 -101 -32 -9 -42 -28 -21 -41 6
-3 32 -8 58 -9 25 -2 54 -3 64 -4 50 -3 88 -91 52 -121 -25 -21 -6 -28 90 -34
111 -8 151 -14 193 -31 39 -17 43 -48 7 -71 -14 -9 -25 -22 -25 -29 0 -15 24
-21 155 -40 49 -7 95 -24 95 -36 0 -4 -7 -12 -17 -17 -33 -19 -5 -39 84 -61
48 -12 101 -33 118 -45 48 -36 70 -45 127 -52 185 -20 321 -126 190 -148 -58
-10 -91 -26 -98 -48 -8 -27 -25 -8 -48 55 -27 73 -42 78 -194 75 -144 -3 -156
1 -166 56 -9 47 -25 57 -81 52 -55 -6 -86 7 -130 54 -34 36 -75 60 -103 60
-29 0 -62 -37 -62 -71 0 -41 37 -73 115 -99 80 -27 90 -38 73 -82 -22 -53 -18
-61 47 -84 122 -44 163 -84 123 -121 -55 -50 -42 -78 60 -124 34 -16 62 -34
62 -39 0 -16 -123 -10 -204 10 -75 19 -99 39 -90 76 10 39 -15 91 -59 126 -55
42 -57 46 -57 94 0 29 -8 51 -30 80 -16 21 -30 47 -30 58 0 33 -61 82 -124
100 -83 24 -116 60 -116 124 0 69 -14 79 -93 63 -102 -20 -112 -21 -123 -13
-22 14 -21 38 2 84 49 98 21 130 -84 95 -59 -20 -63 -20 -79 -4 -14 14 -18 35
-18 100 0 66 -3 82 -16 85 -8 1 -51 -11 -94 -28 -102 -39 -106 -36 -96 88 10
144 -17 181 -112 152 -64 -20 -67 -20 -79 5 -7 16 -8 60 -2 140 10 133 6 144
-58 142 -21 0 -40 2 -44 6 -4 3 -7 48 -8 99 l-1 93 -42 0 c-23 0 -46 5 -52 10
-5 6 -13 46 -16 90 -3 44 -13 90 -20 102 -8 12 -59 57 -112 101 -54 43 -117
100 -141 126 -45 49 -45 50 -17 132 16 48 11 56 -71 95 -64 31 -91 53 -94 79
-5 37 2 52 32 64 34 15 73 8 114 -19z m-5129 -556 c26 -10 49 -47 36 -60 -5
-5 -36 -14 -69 -19 -50 -8 -64 -15 -92 -47 -19 -21 -43 -48 -53 -60 -33 -37
-79 -11 -84 49 -5 62 45 114 138 144 41 12 78 10 124 -7z m189 -490 c32 -30
30 -49 -7 -85 -55 -52 -55 -60 -4 -110 41 -39 46 -49 41 -75 -3 -16 -9 -43
-12 -60 -5 -24 -1 -36 19 -57 32 -35 43 -59 46 -104 3 -46 -27 -81 -67 -76
-28 3 -34 16 -47 101 -5 28 -19 51 -51 82 -43 42 -44 45 -44 107 0 72 -2 76
-52 107 -42 25 -53 48 -44 95 16 85 160 133 222 75z m162 -705 c12 -8 22 -18
23 -22 0 -4 2 -17 5 -29 2 -12 -5 -37 -16 -56 -17 -29 -18 -35 -5 -54 8 -11
52 -39 99 -62 46 -23 87 -48 90 -56 3 -10 -8 -23 -33 -39 -66 -42 -62 -59 34
-154 47 -47 85 -88 85 -93 0 -4 -6 -13 -12 -18 -7 -6 -26 -21 -42 -34 -26 -21
-28 -25 -16 -48 7 -13 30 -44 52 -68 53 -61 54 -97 5 -149 -55 -58 -120 -79
-147 -48 -6 8 -11 32 -10 53 4 86 2 93 -34 108 -63 26 -77 56 -74 157 1 49 -3
92 -8 97 -5 5 -26 14 -47 21 -66 21 -88 89 -62 188 21 84 19 110 -15 167 -34
58 -37 84 -12 114 40 48 88 57 140 25z m5418 -344 c20 -8 74 -64 74 -78 1 -4
5 -26 9 -49 l8 -42 -26 18 c-38 27 -114 50 -171 52 -27 1 -50 4 -50 6 0 15 35
65 61 87 31 27 37 27 95 6z m1974 -205 c19 -22 -12 -63 -66 -87 -42 -18 -47
-18 -70 -4 -13 9 -24 22 -24 29 0 53 127 102 160 62z m-2520 -94 c14 -10 32
-30 40 -45 14 -27 14 -29 -19 -56 l-34 -29 7 -70 6 -69 -29 14 c-75 37 -256
43 -363 10 -27 -8 -48 -12 -48 -10 0 3 6 17 14 32 25 47 89 100 158 131 40 18
74 40 84 57 24 35 90 66 129 58 17 -3 41 -14 55 -23z m2691 -42 c13 -25 -3
-54 -44 -79 -40 -25 -59 -25 -88 -1 -22 18 -23 19 -5 46 19 29 91 66 113 58 7
-3 18 -14 24 -24z m-742 -230 c62 -13 87 -37 67 -65 -31 -42 -225 -12 -234 36
-6 33 80 48 167 29z m2468 -11 c32 -30 29 -74 -10 -150 -24 -47 -45 -71 -81
-95 -26 -18 -53 -33 -58 -33 -5 0 -22 13 -38 28 -23 23 -27 35 -25 70 6 91 92
202 157 202 19 0 41 -9 55 -22z m-1247 -31 c155 -64 333 -221 394 -348 45 -94
56 -187 26 -214 -16 -15 -21 -15 -47 -2 -38 20 -64 50 -171 193 -101 135 -152
185 -275 268 -48 31 -89 67 -93 78 -16 50 73 63 166 25z m-7706 -72 c28 -28 3
-67 -59 -91 -52 -20 -92 -12 -104 19 -10 24 17 62 54 77 33 14 93 11 109 -5z
m9685 -34 c-73 -76 -118 -223 -91 -300 13 -37 6 -38 -38 -8 -75 51 -127 220
-86 282 30 46 101 72 202 74 l60 1 -47 -49z m458 -32 c15 -5 43 -20 61 -31
l34 -21 -38 -13 c-28 -9 -67 -43 -134 -114 -53 -55 -102 -100 -111 -100 -34 0
-79 79 -79 139 1 80 109 167 196 156 23 -3 55 -10 71 -16z m-10128 -124 c32
-6 68 -31 88 -62 14 -21 17 -46 15 -144 -3 -115 -2 -120 22 -144 14 -14 35
-26 48 -26 13 -1 28 -2 33 -4 6 -1 19 -3 31 -3 60 -5 74 -54 34 -114 -38 -55
-37 -73 1 -89 44 -18 89 -58 89 -78 0 -43 -106 -117 -183 -127 -54 -8 -82 7
-67 36 17 31 19 68 4 80 -9 8 -36 10 -84 5 -76 -8 -95 -1 -111 43 -11 29 1 54
48 103 27 28 35 45 35 74 0 51 -25 75 -79 75 -28 0 -46 5 -49 14 -3 7 6 42 20
76 35 84 33 108 -9 157 -37 44 -42 62 -24 94 13 25 66 49 94 43 11 -2 31 -6
44 -9z m6867 -360 c45 -46 87 -152 79 -196 -6 -28 -24 -49 -43 -49 -76 0 -177
215 -127 270 27 29 44 25 91 -25z m2011 -241 c118 -57 193 -200 193 -372 0
-52 -1 -54 -17 -40 -22 19 -97 58 -127 65 -45 11 -178 10 -241 -2 -54 -10 -65
-10 -65 2 0 24 50 113 86 153 l36 39 -49 31 c-45 30 -52 31 -125 27 -74 -3
-76 -3 -64 15 32 45 118 90 211 111 38 9 110 -4 162 -29z m-9268 -30 c32 -23
50 -71 45 -124 -5 -59 -32 -94 -73 -98 -45 -5 -163 33 -186 58 -19 21 -19 22
0 57 33 60 117 119 175 122 9 1 26 -6 39 -15z m-168 -310 c65 -70 -10 -198
-111 -187 -48 6 -75 -18 -85 -77 -10 -57 -63 -110 -110 -110 -44 0 -95 58 -95
108 0 45 43 88 96 97 66 11 82 21 89 59 4 19 21 51 39 70 61 69 134 86 177 40z
m1444 -212 c30 -51 21 -96 -31 -142 -39 -34 -62 -37 -105 -15 -37 19 -52 56
-43 104 10 51 31 80 68 90 36 10 95 -10 111 -37z m6488 23 c42 -20 93 -74 113
-119 19 -45 12 -152 -14 -209 -23 -51 -36 -54 -47 -10 -16 66 -137 205 -222
256 l-33 19 21 30 c41 57 106 69 182 33z m-7048 -35 c24 -26 31 -99 12 -124
-13 -18 -18 -18 -46 -6 -64 26 -82 93 -33 129 34 26 44 26 67 1z m2513 -304
c16 -8 36 -26 46 -40 16 -25 16 -26 -19 -40 -19 -8 -75 -56 -124 -105 -87 -89
-116 -106 -139 -78 -45 53 12 230 87 273 31 17 106 12 149 -10z m-1511 -52
c16 -3 40 -14 53 -24 l24 -18 -35 -15 c-18 -8 -54 -31 -78 -51 -24 -21 -57
-44 -73 -52 -27 -14 -32 -14 -55 1 -35 23 -58 81 -44 112 19 42 118 65 208 47z
m-919 -143 c20 -10 48 -31 61 -45 26 -28 25 -30 -41 -41 -20 -3 -59 -21 -87
-40 -81 -56 -126 -42 -124 37 2 88 102 134 191 89z m1577 -131 c76 -44 135
-112 149 -172 l6 -28 -42 24 c-94 52 -183 52 -283 1 -38 -19 -80 -35 -92 -35
-38 0 -75 41 -80 89 -5 40 -2 45 39 85 56 53 94 66 188 62 56 -2 85 -9 115
-26z m-1269 -361 c63 -24 138 -88 165 -142 39 -74 53 -192 34 -275 -5 -21 -9
-19 -46 28 -65 82 -158 141 -250 158 -26 5 -83 7 -127 5 -106 -6 -125 4 -119
60 5 50 14 72 40 110 20 29 79 71 113 80 33 9 137 -4 190 -24z"/>
<path d="M44511 33784 c0 -11 3 -14 6 -6 3 7 2 16 -1 19 -3 4 -6 -2 -5 -13z"/>
</g>
</svg>
